<svg xmlns="http://www.w3.org/2000/svg">
  <!-- down arrow -->
  <symbol fill="none" viewBox="0 0 24 24" id="svg-icon-down" xmlns="http://www.w3.org/2000/svg">
    <path
      d="M18.998 10.135c0-.265-.08-.521-.23-.725a1.035 1.035 0 0 0-.302-.28.885.885 0 0 0-.762-.08.968.968 0 0 0-.342.213l-5.348 5.077-5.358-4.896a.964.964 0 0 0-.346-.207.884.884 0 0 0-.762.092 1.04 1.04 0 0 0-.3.285c-.09.117-.159.255-.2.403a1.28 1.28 0 0 0 .081.903c.068.136.16.255.27.348l5.986 5.474a.928.928 0 0 0 .634.258.928.928 0 0 0 .633-.258l5.987-5.666c.12-.114.216-.258.279-.422a1.27 1.27 0 0 0 .08-.519Z"
      fill="currentColor" />
  </symbol>
  <!-- up arrow -->
  <symbol fill="none" viewBox="0 0 24 24" id="svg-icon-up" xmlns="http://www.w3.org/2000/svg">
    <path
      d="M18.998 13.865c0 .264-.08.521-.23.725-.083.115-.186.21-.302.28a.884.884 0 0 1-.762.08.968.968 0 0 1-.342-.213L12.014 9.66l-5.358 4.896a.963.963 0 0 1-.346.207.884.884 0 0 1-.762-.092 1.04 1.04 0 0 1-.3-.285 1.18 1.18 0 0 1-.2-.403 1.28 1.28 0 0 1 .081-.903c.068-.136.16-.255.27-.348l5.986-5.474A.928.928 0 0 1 12.02 7c.23 0 .455.091.633.258l5.987 5.666c.12.114.216.258.279.422.062.163.09.34.08.519Z"
      fill="currentColor" />
  </symbol>
  <!-- pin -->
  <symbol fill="none" viewBox="0 0 18 22" id="svg-pin" xmlns="http://www.w3.org/2000/svg">
    <path
      d="M9 0c2.387 0 4.676.993 6.364 2.762C17.052 4.53 18 6.928 18 9.429c0 4.505-2.902 8.652-8.598 12.449a.726.726 0 0 1-.804 0C2.902 18.08 0 13.934 0 9.428c0-2.5.948-4.898 2.636-6.666C4.324.993 6.613 0 9 0Zm0 6.286c-.796 0-1.559.33-2.121.92A3.22 3.22 0 0 0 6 9.43c0 .833.316 1.633.879 2.222.562.59 1.325.92 2.121.92s1.559-.33 2.121-.92A3.22 3.22 0 0 0 12 9.429a3.22 3.22 0 0 0-.879-2.223A2.932 2.932 0 0 0 9 6.286Z"
      fill="#F59E0B" />
  </symbol>
  <!-- right arrow -->
  <symbol fill="none" viewBox="0 0 8 14" id="svg-icon-right" xmlns="http://www.w3.org/2000/svg">
    <path
      d="M1.135.002C.87.002.614.082.41.232.295.314.2.417.13.533a.885.885 0 0 0-.08.762.968.968 0 0 0 .213.342L5.34 6.986.444 12.344a.964.964 0 0 0-.207.346.884.884 0 0 0 .092.762c.072.115.169.217.285.3.117.09.255.159.403.2a1.28 1.28 0 0 0 .903-.081c.136-.068.255-.16.349-.27l5.473-5.986A.928.928 0 0 0 8 6.98a.928.928 0 0 0-.258-.633L2.076.36a1.132 1.132 0 0 0-.422-.279 1.27 1.27 0 0 0-.519-.08Z"
      fill="currentColor" />
  </symbol>
  <!-- left arrow -->
  <symbol fill="none" viewBox="0 0 8 14" id="svg-icon-left" xmlns="http://www.w3.org/2000/svg">
    <path
      d="M6.865.002c.265 0 .521.08.725.23.115.083.21.186.28.302a.885.885 0 0 1 .08.762.968.968 0 0 1-.213.342L2.66 6.986l4.896 5.358c.094.103.164.22.207.346a.884.884 0 0 1-.092.762 1.04 1.04 0 0 1-.285.3c-.117.09-.255.159-.403.2a1.28 1.28 0 0 1-.903-.081 1.102 1.102 0 0 1-.349-.27L.258 7.616A.928.928 0 0 1 0 6.98c0-.23.091-.455.258-.633L5.924.36c.114-.12.258-.216.422-.279a1.27 1.27 0 0 1 .519-.08Z"
      fill="currentColor" />
  </symbol>
  <!-- house icon -->
  <symbol fill="none" viewBox="0 0 24 24" id="svg-icon-house" xmlns="http://www.w3.org/2000/svg">
    <path
      d="M21 10.832V19.5a1.507 1.507 0 0 1-.792 1.326c-.216.117-.46.177-.706.174h-4.505a.75.75 0 0 1-.75-.75v-4.5a.75.75 0 0 0-.75-.75h-3a.75.75 0 0 0-.75.75v4.5a.75.75 0 0 1-.75.75H4.5a1.492 1.492 0 0 1-1.124-.507A1.544 1.544 0 0 1 3 19.466v-8.634a1.503 1.503 0 0 1 .491-1.11l7.5-6.819a1.494 1.494 0 0 1 2.018 0l7.5 6.819a1.504 1.504 0 0 1 .491 1.11Z"
      fill="currentColor" />
  </symbol>
  <!-- villa icon -->
  <symbol fill="none" viewBox="0 0 24 24" id="svg-icon-villa" xmlns="http://www.w3.org/2000/svg">
    <path
      d="M7 21H4c-.55 0-1-.45-1-1V8.69c0-.42.25-.79.64-.94l11-4.23a1 1 0 0 1 1.36.94V10H8c-.55 0-1 .45-1 1v10Zm10-9h-7c-.55 0-1 .45-1 1v7c0 .55.45 1 1 1h4v-4c0-.55.45-1 1-1s1 .45 1 1v4h4c.55 0 1-.45 1-1v-8c0-1.1-.9-2-2-2s-2 .9-2 2Z"
      fill="currentColor" />
  </symbol>
  <!-- apartment icon-->
  <symbol fill="none" viewBox="0 0 24 24" id="svg-icon-apartment" xmlns="http://www.w3.org/2000/svg">
    <path
      d="M17 11V5c0-1.1-.9-2-2-2H9c-1.1 0-2 .9-2 2v2H5c-1.1 0-2 .9-2 2v10c0 1.1.9 2 2 2h6v-4h2v4h6c1.1 0 2-.9 2-2v-6c0-1.1-.9-2-2-2h-2ZM7 19H5v-2h2v2Zm0-4H5v-2h2v2Zm0-4H5V9h2v2Zm4 4H9v-2h2v2Zm0-4H9V9h2v2Zm0-4H9V5h2v2Zm4 8h-2v-2h2v2Zm0-4h-2V9h2v2Zm0-4h-2V5h2v2Zm4 12h-2v-2h2v2Zm0-4h-2v-2h2v2Z"
      fill="currentColor" />
  </symbol>
  <!-- mail icon-->
  <symbol fill="none" viewBox="0 0 20 16" id="svg-mail" xmlns="http://www.w3.org/2000/svg">
    <path
      d="M17 0H3a3 3 0 0 0-3 3v10a3 3 0 0 0 3 3h14a3 3 0 0 0 3-3V3a3 3 0 0 0-3-3Zm0 2-6.5 4.47a1 1 0 0 1-1 0L3 2h14Z"
      fill="#1D4ED8" />
  </symbol>
  <!-- fb icon-->
  <symbol fill="none" viewBox="0 0 32 32" id="svg-fb" xmlns="http://www.w3.org/2000/svg">
    <path fill-rule="evenodd" clip-rule="evenodd"
      d="M32 16.097C32 7.207 24.836 0 16 0S0 7.208 0 16.097C0 24.13 5.85 30.79 13.5 31.998V20.751H9.436v-4.654H13.5V12.55c0-4.033 2.39-6.263 6.044-6.263 1.75 0 3.582.315 3.582.315v3.961h-2.019c-1.986 0-2.608 1.24-2.608 2.515v3.019h4.437l-.708 4.654H18.5V32C26.15 30.792 32 24.133 32 16.097Z"
      fill="currentColor" />
  </symbol>
  <!-- twitter icon-->
  <symbol fill="none" viewBox="0 0 24 20" id="svg-twitter" xmlns="http://www.w3.org/2000/svg">
    <path
      d="M24 2.37c-.9.407-1.853.676-2.828.797A5.043 5.043 0 0 0 23.34.375a9.647 9.647 0 0 1-3.128 1.224A4.957 4.957 0 0 0 18.57.415 4.786 4.786 0 0 0 16.615 0c-2.72 0-4.922 2.26-4.922 5.047-.002.387.04.774.127 1.15a13.594 13.594 0 0 1-5.61-1.521A14.146 14.146 0 0 1 1.67.922 5.142 5.142 0 0 0 1 3.458c0 1.75.877 3.297 2.2 4.203a4.725 4.725 0 0 1-2.239-.63v.063c0 2.448 1.7 4.484 3.95 4.948-.423.117-.86.177-1.297.177-.31 0-.62-.031-.925-.094.625 2.005 2.446 3.464 4.602 3.505A9.724 9.724 0 0 1 0 17.72a13.528 13.528 0 0 0 7.537 2.28c9.068 0 14.022-7.692 14.022-14.364 0-.218-.006-.437-.016-.65A10.154 10.154 0 0 0 24 2.37Z"
      fill="currentColor" />
  </symbol>

  <symbol fill="none" viewBox="0 0 32 32" id="svg-pintrest" xmlns="http://www.w3.org/2000/svg">
    <path
      d="M16.004 0C7.166 0 0 7.163 0 15.996c0 6.549 3.944 12.176 9.58 14.654-.042-1.114-.006-2.456.28-3.67l2.057-8.72s-.514-1.021-.514-2.528c0-2.37 1.371-4.142 3.086-4.142 1.457 0 2.158 1.093 2.158 2.4 0 1.464-.936 3.649-1.415 5.677-.4 1.7.85 3.078 2.53 3.078 3.028 0 5.072-3.892 5.072-8.505 0-3.507-2.365-6.128-6.659-6.128-4.851 0-7.88 3.621-7.88 7.663 0 1.393.414 2.378 1.057 3.135.293.35.336.493.229.893-.079.293-.25 1-.329 1.285-.107.407-.436.55-.8.4-2.236-.914-3.28-3.356-3.28-6.113 0-4.542 3.837-9.99 11.439-9.99 6.108 0 10.13 4.42 10.13 9.162 0 6.277-3.493 10.962-8.637 10.962-1.729 0-3.35-.936-3.908-1.993 0 0-.929 3.685-1.129 4.4-.336 1.235-1 2.463-1.607 3.427 1.473.434 3 .656 4.536.657C24.834 32 32 24.837 32 16.004 32 7.17 24.841 0 16.004 0Z"
      fill="currentColor" />
  </symbol>
</svg>